<svg width="200" height="200" viewBox="0 0 200 200" fill="none" xmlns="http://www.w3.org/2000/svg">
<path d="M67.4999 128C39.9995 131.5 51.5 146 95.0003 146L105 146C148.5 146 160.001 131.5 132.5 128C105 124.5 182 119 159 108C136 97.0001 170 120 186 71.5001C202 23.0001 151.824 35.3654 136.912 61.9328C122 88.5001 116.729 99.9327 108.912 99.9327L91.088 99.9326C83.2707 99.9326 78 88.5 63.0881 61.9327C48.1762 35.3654 -1.99985 23 14 71.5C29.9999 120 64 97 40.9999 108C17.9998 119 95.0003 124.5 67.4999 128Z" stroke="#FEC850" stroke-width="10"/>
<path d="M186 57C186 65.8366 178.837 73 170 73C161.163 73 154 65.8366 154 57C154 48.1634 161.163 41 170 41C178.837 41 186 48.1634 186 57Z" fill="#5086FE"/>
<path d="M46 57C46 65.8366 38.8366 73 30 73C21.1634 73 14 65.8366 14 57C14 48.1634 21.1634 41 30 41C38.8366 41 46 48.1634 46 57Z" fill="#5086FE"/>
<path d="M86 36C86 36 90 29 100 29C110 29 114 36 114 36" stroke="#3069E8" stroke-width="4"/>
<path d="M79 29C79 29 85 19.5 100 19.5C115 19.5 121 29 121 29" stroke="#4279F0" stroke-width="5"/>
<path d="M72 20C72 20 80 9 100 9C120 9 128 20 128 20" stroke="#5086FE" stroke-width="6"/>
<rect x="97" y="43" width="6" height="10" fill="#4279F0"/>
<path d="M106 43C106 46.3137 103.314 49 100 49C96.6863 49 94 46.3137 94 43C94 39.6863 96.6863 37 100 37C103.314 37 106 39.6863 106 43Z" fill="#3069E8"/>
<path d="M73 53H127C127 65.1503 117.15 75 105 75H95C82.8497 75 73 65.1503 73 53Z" fill="#4279F0"/>
<rect x="65" y="146" width="70" height="34" fill="#5086FE"/>
<path d="M107 161L110 158H118L121 161V169L118 172H110L107 169V161Z" fill="#FEC850"/>
<path d="M79 161L82 158H90L93 161V169L90 172H82L79 169V161Z" fill="#FEC850"/>
<path d="M71 146L75 142H125L129 146V152H71V146Z" fill="#4279F0"/>
<path d="M116 84C116 81.7909 114.209 80 112 80H109V96C112.866 96 116 92.866 116 89V84Z" fill="#5086FE"/>
<path d="M84 84C84 81.7909 85.7909 80 88 80H91V96C87.134 96 84 92.866 84 89V84Z" fill="#5086FE"/>
<rect x="91" y="80" width="18" height="16" fill="#3069E8"/>
</svg>
