<svg width="96" height="96" viewBox="0 0 96 96" fill="none" xmlns="http://www.w3.org/2000/svg">
<g clip-path="url(#clip0_244_2713)">
<g clip-path="url(#clip1_244_2713)">
<path fill-rule="evenodd" clip-rule="evenodd" d="M12.6781 13.8553L15.6277 14.1451L18.1702 12.3107L18.8057 9.42241L19.6389 8.39513L25.2293 7.8138L26.2601 8.64755L27.4886 11.3423L30.3695 12.662L33.1938 11.7726L34.5031 11.9808L37.8118 16.5242L37.6059 17.8308L35.8851 20.2349L36.1825 23.2967L38.3716 25.2948L38.8477 26.5302L36.566 31.655L35.3293 32.1278L32.3797 31.838L29.8621 33.6705L29.2266 36.5588L28.3937 37.5852L22.8034 38.1665L21.7722 37.3336L20.5437 34.6388L17.7035 33.4123L14.8793 34.3017L13.5699 34.0935L10.2612 29.5501L10.4671 28.2435L12.1879 25.8394L11.8249 22.6864L9.63583 20.6883L9.15967 19.4529L11.4414 14.3281L12.6781 13.8553ZM18.0032 20.3119C16.533 23.614 18.0253 27.4859 21.3363 28.96C24.6473 30.434 28.5233 28.9523 29.9934 25.6504C31.4636 22.3484 29.9711 18.4765 26.6603 17.0022C23.3493 15.5281 19.4733 17.0099 18.0032 20.3119Z" fill="#2A2A2A"/>
</g>
<g clip-path="url(#clip2_244_2713)">
<path fill-rule="evenodd" clip-rule="evenodd" d="M60.6781 13.8553L63.6277 14.1451L66.1702 12.3107L66.8057 9.42241L67.6389 8.39513L73.2293 7.8138L74.2601 8.64755L75.4886 11.3423L78.3695 12.662L81.1938 11.7726L82.5031 11.9808L85.8118 16.5242L85.6059 17.8308L83.8851 20.2349L84.1825 23.2967L86.3716 25.2948L86.8477 26.5302L84.566 31.655L83.3293 32.1278L80.3797 31.838L77.8621 33.6705L77.2266 36.5588L76.3937 37.5852L70.8034 38.1665L69.7722 37.3336L68.5437 34.6388L65.7035 33.4123L62.8793 34.3017L61.5699 34.0935L58.2612 29.5501L58.4671 28.2435L60.1879 25.8394L59.8249 22.6864L57.6358 20.6883L57.1597 19.4529L59.4414 14.3281L60.6781 13.8553ZM66.0032 20.3119C64.533 23.614 66.0253 27.4859 69.3363 28.96C72.6473 30.434 76.5233 28.9523 77.9934 25.6504C79.4636 22.3484 77.9711 18.4765 74.6603 17.0022C71.3493 15.5281 67.4733 17.0099 66.0032 20.3119Z" fill="#2A2A2A"/>
</g>
<g clip-path="url(#clip3_244_2713)">
<path fill-rule="evenodd" clip-rule="evenodd" d="M12.6781 61.8553L15.6277 62.1451L18.1702 60.3107L18.8057 57.4224L19.6389 56.3951L25.2293 55.8138L26.2601 56.6476L27.4886 59.3423L30.3695 60.662L33.1938 59.7726L34.5031 59.9808L37.8118 64.5242L37.6059 65.8308L35.8851 68.2349L36.1825 71.2967L38.3716 73.2948L38.8477 74.5302L36.566 79.655L35.3293 80.1278L32.3797 79.838L29.8621 81.6705L29.2266 84.5588L28.3937 85.5852L22.8034 86.1665L21.7722 85.3336L20.5437 82.6388L17.7035 81.4123L14.8793 82.3017L13.5699 82.0935L10.2612 77.5501L10.4671 76.2435L12.1879 73.8394L11.8249 70.6864L9.63583 68.6883L9.15967 67.4529L11.4414 62.3281L12.6781 61.8553ZM18.0032 68.3119C16.533 71.614 18.0253 75.4859 21.3363 76.96C24.6473 78.434 28.5233 76.9523 29.9934 73.6504C31.4636 70.3484 29.9711 66.4765 26.6603 65.0022C23.3493 63.5281 19.4733 65.0099 18.0032 68.3119Z" fill="#2A2A2A"/>
</g>
<g clip-path="url(#clip4_244_2713)">
<path fill-rule="evenodd" clip-rule="evenodd" d="M60.6781 61.8553L63.6277 62.1451L66.1702 60.3107L66.8057 57.4224L67.6389 56.3951L73.2293 55.8138L74.2601 56.6476L75.4886 59.3423L78.3695 60.662L81.1938 59.7726L82.5031 59.9808L85.8118 64.5242L85.6059 65.8308L83.8851 68.2349L84.1825 71.2967L86.3716 73.2948L86.8477 74.5302L84.566 79.655L83.3293 80.1278L80.3797 79.838L77.8621 81.6705L77.2266 84.5588L76.3937 85.5852L70.8034 86.1665L69.7722 85.3336L68.5437 82.6388L65.7035 81.4123L62.8793 82.3017L61.5699 82.0935L58.2612 77.5501L58.4671 76.2435L60.1879 73.8394L59.8249 70.6864L57.6358 68.6883L57.1597 67.4529L59.4414 62.3281L60.6781 61.8553ZM66.0032 68.3119C64.533 71.614 66.0253 75.4859 69.3363 76.96C72.6473 78.434 76.5233 76.9523 77.9934 73.6504C79.4636 70.3484 77.9711 66.4765 74.6603 65.0022C71.3493 63.5281 67.4733 65.0099 66.0032 68.3119Z" fill="#2A2A2A"/>
</g>
</g>
<defs>
<clipPath id="clip0_244_2713">
<rect width="96" height="96" fill="white"/>
</clipPath>
<clipPath id="clip1_244_2713">
<rect width="36" height="36" fill="white" transform="translate(0.234863 32.1226) rotate(-66)"/>
</clipPath>
<clipPath id="clip2_244_2713">
<rect width="36" height="36" fill="white" transform="translate(48.2349 32.1226) rotate(-66)"/>
</clipPath>
<clipPath id="clip3_244_2713">
<rect width="36" height="36" fill="white" transform="translate(0.234863 80.1226) rotate(-66)"/>
</clipPath>
<clipPath id="clip4_244_2713">
<rect width="36" height="36" fill="white" transform="translate(48.2349 80.1226) rotate(-66)"/>
</clipPath>
</defs>
</svg>
