<svg width="128" height="64" viewBox="0 0 128 64" fill="none" xmlns="http://www.w3.org/2000/svg">
<mask id="mask0_147_50" style="mask-type:alpha" maskUnits="userSpaceOnUse" x="0" y="0" width="128" height="64">
<rect width="128" height="64" fill="white"/>
</mask>
<g mask="url(#mask0_147_50)">
<path d="M10.4939 9.33783L12.7286 7.1032C12.9067 7.85778 13.0173 9.27992 12.8855 11.5724L17.68 10.8532C17.892 6.58639 16.5454 4.68217 15.7081 4.12369L18.1239 1.70787L9.05954 0.575462L10.4939 9.33783Z" fill="black"/>
<path d="M12.4376 18.0841C11.1106 24.6166 13.8056 29.8094 15.5031 30.8628C17.3351 29.0307 18.2608 28.1446 18.2411 28.1248C14.7873 24.671 15.4845 22.5173 16.6208 17.3928L12.4376 18.0841Z" fill="black"/>
<path d="M19.8387 11.399C26.3712 10.072 30.2291 13.3743 31.2825 15.0718C29.4505 16.9038 28.5643 17.8295 28.5445 17.8098C24.3992 13.6644 22.1267 15.4988 14.3427 16.895C8.11556 18.0119 5.21468 16.2759 4.54263 15.2684L2.12681 17.6842L0.994404 8.61984L9.75677 10.0542L7.52214 12.2889C8.94519 12.6248 13.3063 12.726 19.8387 11.399Z" fill="black"/>
<path d="M74.4929 9.33783L76.7276 7.1032C76.9057 7.85778 77.0164 9.27992 76.8846 11.5724L81.6791 10.8532C81.891 6.58639 80.5444 4.68217 79.7071 4.12369L82.1229 1.70787L73.0586 0.575462L74.4929 9.33783Z" fill="black"/>
<path d="M76.4366 18.0841C75.1096 24.6166 77.8046 29.8094 79.5022 30.8628C81.3341 29.0307 82.2598 28.1446 82.2401 28.1248C78.7863 24.671 79.4835 22.5173 80.6198 17.3928L76.4366 18.0841Z" fill="black"/>
<path d="M83.8378 11.399C90.3702 10.072 94.2282 13.3743 95.2815 15.0718C93.4495 16.9038 92.5633 17.8295 92.5436 17.8098C88.3982 13.6644 86.1258 15.4988 78.3418 16.895C72.1146 18.0119 69.2137 16.2759 68.5417 15.2684L66.1258 17.6842L64.9934 8.61984L73.7558 10.0542L71.5212 12.2889C72.9442 12.6248 77.3053 12.726 83.8378 11.399Z" fill="black"/>
<path d="M42.4949 41.338L44.7295 39.1033C44.9077 39.8579 45.0183 41.28 44.8865 43.5725L49.681 42.8533C49.893 38.5865 48.5464 36.6823 47.709 36.1238L50.1249 33.708L41.0605 32.5756L42.4949 41.338Z" fill="black"/>
<path d="M44.4386 50.0843C43.1116 56.6168 45.8066 61.8095 47.5041 62.8629C49.3361 61.0309 50.2618 60.1447 50.2421 60.1249C46.7883 56.6712 47.4855 54.5175 48.6217 49.393L44.4386 50.0843Z" fill="black"/>
<path d="M51.8397 43.3991C58.3722 42.0721 62.2301 45.3744 63.2834 47.072C61.4514 48.9039 60.5652 49.8296 60.5455 49.8099C56.4002 45.6645 54.1277 47.499 46.3437 48.8951C40.1165 50.012 37.2157 48.2761 36.5436 47.2685L34.1278 49.6843L32.9954 40.62L41.7577 42.0543L39.5231 44.289C40.9462 44.6249 45.3072 44.7261 51.8397 43.3991Z" fill="black"/>
<path d="M106.495 41.338L108.73 39.1033C108.908 39.8579 109.018 41.28 108.887 43.5725L113.681 42.8533C113.893 38.5865 112.546 36.6823 111.709 36.1238L114.125 33.708L105.061 32.5756L106.495 41.338Z" fill="black"/>
<path d="M108.439 50.0843C107.112 56.6168 109.807 61.8095 111.504 62.8629C113.336 61.0309 114.262 60.1447 114.242 60.1249C110.788 56.6712 111.485 54.5175 112.622 49.393L108.439 50.0843Z" fill="black"/>
<path d="M115.84 43.3991C122.372 42.0721 126.23 45.3744 127.283 47.072C125.451 48.9039 124.565 49.8296 124.546 49.8099C120.4 45.6645 118.128 47.499 110.344 48.8951C104.117 50.012 101.216 48.2761 100.544 47.2685L98.1278 49.6843L96.9954 40.62L105.758 42.0543L103.523 44.289C104.946 44.6249 109.307 44.7261 115.84 43.3991Z" fill="black"/>
</g>
</svg>
